<?xml version="1.0" encoding="UTF-8" standalone="no"?>
<!-- Created with Inkscape (http://www.inkscape.org/) -->
<svg
   xmlns:svg="http://www.w3.org/2000/svg"
   xmlns="http://www.w3.org/2000/svg"
   version="1.0"
   width="763.81958"
   height="937.88873"
   id="svg8343">
  <defs
     id="defs8345" />
  <g
     transform="translate(-10.947371,-77.703527)"
     id="layer1">
    <path
       d="M 13.399559,80.153602 L 13.397446,663.1536 C 13.397446,856.34735 183.39414,1013.1422 392.85438,1013.1422 C 602.31451,1013.1422 772.3112,856.34735 772.3112,663.1536 L 772.31686,80.153602 L 13.399559,80.153602 z "
       style="fill:#f7eb3c;fill-opacity:1;stroke:none;stroke-width:4.90014935;stroke-miterlimit:4;stroke-dasharray:none;stroke-opacity:1"
       id="CoA_Nr._11" />
    <path
       d="M 15.550343,700.62765 C 35.844763,876.22195 197.11891,1013.1422 392.85438,1013.1422 C 602.31451,1013.1422 772.3112,856.34735 772.3112,663.1536 L 772.31542,228.07645 C 772.31542,228.07645 15.550343,700.62765 15.550343,700.62765 z "
       style="fill:#85d238;fill-opacity:1;stroke:#000000;stroke-width:4.90014935;stroke-miterlimit:4;stroke-dasharray:none;stroke-opacity:1"
       id="path9465" />
    <path
       d="M 475.71429,120.93361 L 545.71429,120.93361 L 545.71429,268.07648 C 520.65456,273.80549 506.25697,274.85254 475.71429,282.00505 L 475.71429,120.93361 z "
       style="fill:#ffffff;fill-opacity:1;stroke:#000000;stroke-width:2;stroke-linecap:round;stroke-linejoin:miter;stroke-miterlimit:4;stroke-dasharray:none;stroke-dashoffset:0;stroke-opacity:1"
       id="rect9467" />
    <path
       d="M 356.78574,120.93361 L 426.78574,120.93361 L 426.78574,240.93362 C 414.97547,214.03099 383.45363,196.72637 356.78574,185.57647 L 356.78574,120.93361 z "
       style="fill:#ffffff;fill-opacity:1;stroke:#000000;stroke-width:2;stroke-linecap:round;stroke-linejoin:miter;stroke-miterlimit:4;stroke-dasharray:none;stroke-dashoffset:0;stroke-opacity:1"
       id="rect10438" />
    <path
       d="M 251.42859,120.93361 L 321.42859,120.93361 L 321.42859,176.6479 C 300.39089,168.09367 278.13636,160.35066 251.42859,155.57647 L 251.42859,120.93361 z "
       style="fill:#ffffff;fill-opacity:1;stroke:#000000;stroke-width:2;stroke-linecap:round;stroke-linejoin:miter;stroke-miterlimit:4;stroke-dasharray:none;stroke-dashoffset:0;stroke-opacity:1"
       id="rect10440" />
    <path
       d="M 254.64286,193.79075 C 254.64286,193.79075 270,274.50504 298.57143,302.36218 C 327.14286,330.21932 367.85714,326.6479 382.85714,323.07647 C 397.85714,319.50504 421.07143,290.21932 414.28571,274.50504 C 407.5,258.79075 392.85714,239.50504 371.07143,229.50504 C 349.28571,219.50504 271.07143,194.1479 254.64286,193.79075 z "
       style="opacity:1;color:#000000;fill:#ffffff;fill-opacity:1;fill-rule:evenodd;stroke:#000000;stroke-width:2;stroke-linecap:butt;stroke-linejoin:miter;marker:none;marker-start:none;marker-mid:none;marker-end:none;stroke-miterlimit:4;stroke-dasharray:none;stroke-dashoffset:0;stroke-opacity:1;visibility:visible;display:inline;overflow:visible;enable-background:accumulate"
       id="path10445" />
    <path
       d="M 549.64286,579.1479 C 549.64286,579.1479 477.14286,591.6479 451.07143,600.21933 C 425,608.79075 389.64286,628.07647 387.14286,659.1479 C 384.64286,690.21933 415.35905,706.27369 425,707.36218 C 447.14286,709.86218 466.42857,704.50504 488.92857,687.71932 C 502.56422,677.5467 535.35714,637.71933 549.64286,579.1479 z "
       style="opacity:1;color:#000000;fill:#f7eb3c;fill-opacity:1;fill-rule:evenodd;stroke:#000000;stroke-width:2;stroke-linecap:butt;stroke-linejoin:miter;marker:none;marker-start:none;marker-mid:none;marker-end:none;stroke-miterlimit:4;stroke-dasharray:none;stroke-dashoffset:0;stroke-opacity:1;visibility:visible;display:inline;overflow:visible;enable-background:accumulate"
       id="path10453" />
    <path
       d="M 567.5,710.57647 C 567.5,710.57647 495,723.07647 468.92857,731.6479 C 442.85714,740.21932 407.5,759.50504 405,790.57647 C 402.5,821.6479 433.21619,837.70226 442.85714,838.79075 C 465,841.29075 484.28571,835.93361 506.78571,819.14789 C 520.42136,808.97527 553.21428,769.1479 567.5,710.57647 z "
       style="opacity:1;color:#000000;fill:#f7eb3c;fill-opacity:1;fill-rule:evenodd;stroke:#000000;stroke-width:2;stroke-linecap:butt;stroke-linejoin:miter;marker:none;marker-start:none;marker-mid:none;marker-end:none;stroke-miterlimit:4;stroke-dasharray:none;stroke-dashoffset:0;stroke-opacity:1;visibility:visible;display:inline;overflow:visible;enable-background:accumulate"
       id="path10455" />
    <path
       d="M 247.71875,695.5625 C 262.00447,754.13393 294.80184,793.98363 308.4375,804.15625 C 330.9375,820.94197 350.2009,826.28123 372.34375,823.78125 C 375.34535,823.44236 380.39488,821.64801 385.84375,818.40625 C 378.65396,810.48071 374.28125,799.97304 374.28125,788.4375 C 374.28126,771.13517 384.15899,756.12785 398.5625,748.71875 C 385.43975,732.98941 363.77934,722.40905 346.28125,716.65625 C 320.20982,708.08482 247.71875,695.56249 247.71875,695.5625 z "
       style="opacity:1;color:#000000;fill:#f7eb3c;fill-opacity:1;fill-rule:evenodd;stroke:#000000;stroke-width:2;stroke-linecap:butt;stroke-linejoin:miter;marker:none;marker-start:none;marker-mid:none;marker-end:none;stroke-miterlimit:4;stroke-dasharray:none;stroke-dashoffset:0;stroke-opacity:1;visibility:visible;display:inline;overflow:visible;enable-background:accumulate"
       id="path10457" />
    <path
       d="M 401.375,834.59375 C 390.91237,844.1407 378.94929,850.38314 363.5625,853.625 L 363.5625,949.15625 L 433.5625,949.15625 L 433.5625,865.09375 C 424.2288,862.19707 407.39447,852.05854 401.375,834.59375 z "
       style="fill:#f7eb3c;fill-opacity:1;stroke:#000000;stroke-width:2;stroke-linecap:round;stroke-linejoin:miter;stroke-miterlimit:4;stroke-dasharray:none;stroke-dashoffset:0;stroke-opacity:1"
       id="path10467" />
    <path
       d="M 14.473767,660.29646 C 14.473767,687.06724 17.737967,713.13911 23.919047,738.19172 C 23.919047,738.19172 273.4496,569.94197 273.4496,569.94197 C 273.4496,569.94197 299.0195,548.56835 322.0484,545.18241 C 350.8888,540.94202 356.63021,540.41418 366.7308,533.90844 C 522.73625,433.42609 773.3913,273.53457 773.3913,273.53457 L 773.392,197.77313 C 773.392,197.77313 399,443.90364 399,443.90364 C 355.7332,474.2951 341.57623,470.6633 314.0806,475.7553 C 286.46575,480.86938 274.43002,490.82219 250.85962,503.86612 C 250.85962,503.86612 14.473767,660.29646 14.473767,660.29646 z "
       style="fill:#1955b2;fill-opacity:1;stroke:#000000;stroke-width:2;stroke-miterlimit:4;stroke-dasharray:none;stroke-opacity:1"
       id="path14355" />
    <path
       d="M 13.399559,80.153602 L 13.397446,663.1536 C 13.397446,856.34735 183.39414,1013.1422 392.85438,1013.1422 C 602.31451,1013.1422 772.3112,856.34735 772.3112,663.1536 L 772.31686,80.153602 L 13.399559,80.153602 z "
       style="fill:none;fill-opacity:1;stroke:#000000;stroke-width:4.90014935;stroke-miterlimit:4;stroke-dasharray:none;stroke-opacity:1"
       id="path10475" />
    <path
       d="M 244.49554,551.28571 C 276.6384,603.7857 298.36434,650.42113 312,660.59375 C 333.48757,676.62415 352.02665,682.20678 372.9375,680.5 C 366.84325,672.89113 362.56863,662.91488 363.5625,650.5625 C 365.25134,629.57268 381.93938,613.96962 400.625,603.40625 C 387.39559,588.63272 366.12887,580.11092 349.84375,573.09375 C 305.91517,554.16516 244.49554,551.2857 244.49554,551.28571 z "
       style="opacity:1;color:#000000;fill:#f7eb3c;fill-opacity:1;fill-rule:evenodd;stroke:#000000;stroke-width:2;stroke-linecap:butt;stroke-linejoin:miter;marker:none;marker-start:none;marker-mid:none;marker-end:none;stroke-miterlimit:4;stroke-dasharray:none;stroke-dashoffset:0;stroke-opacity:1;visibility:visible;display:inline;overflow:visible;enable-background:accumulate"
       id="path10462" />
    <path
       d="M 543.21429,429.86219 C 543.21429,429.86219 477.14286,461.6479 451.07143,470.21933 C 425,478.79075 389.64286,498.07647 387.14286,529.1479 C 384.64286,560.21933 415.35905,576.27369 425,577.36218 C 447.14286,579.86218 466.42857,574.50504 488.92857,557.71932 C 502.56422,547.5467 541.07143,497.71933 543.21429,429.86219 z "
       style="opacity:1;color:#000000;fill:#f7eb3c;fill-opacity:1;fill-rule:evenodd;stroke:#000000;stroke-width:2;stroke-linecap:butt;stroke-linejoin:miter;marker:none;marker-start:none;marker-mid:none;marker-end:none;stroke-miterlimit:4;stroke-dasharray:none;stroke-dashoffset:0;stroke-opacity:1;visibility:visible;display:inline;overflow:visible;enable-background:accumulate"
       id="path10451" />
    <path
       d="M 258.57143,323.43361 C 258.57143,323.43361 266.07143,395.21932 288.21429,422.00504 C 310.35714,448.79075 342.14286,456.29075 372.5,456.29075 C 402.85714,456.29075 403.57143,444.1479 403.57143,444.1479 C 403.57143,444.1479 371.07143,433.43361 361.42857,418.79075 C 351.78571,404.1479 348.21429,380.21932 357.5,363.79075 C 357.5,363.79075 318.92857,327.36218 258.57143,323.43361 z "
       style="opacity:1;color:#000000;fill:#ffffff;fill-opacity:1;fill-rule:evenodd;stroke:#000000;stroke-width:2;stroke-linecap:butt;stroke-linejoin:miter;marker:none;marker-start:none;marker-mid:none;marker-end:none;stroke-miterlimit:4;stroke-dasharray:none;stroke-dashoffset:0;stroke-opacity:1;visibility:visible;display:inline;overflow:visible;enable-background:accumulate"
       id="path10447" />
    <path
       d="M 549.64286,300.57647 C 549.64286,300.57647 477.14286,313.07647 451.07143,321.6479 C 425,330.21932 389.64286,349.50504 387.14286,380.57647 C 384.64286,411.6479 415.35905,427.70226 425,428.79075 C 447.14286,431.29075 466.42857,425.93361 488.92857,409.14789 C 502.56422,398.97527 535.35714,359.1479 549.64286,300.57647 z "
       style="opacity:1;color:#000000;fill:#ffffff;fill-opacity:1;fill-rule:evenodd;stroke:#000000;stroke-width:2;stroke-linecap:butt;stroke-linejoin:miter;marker:none;marker-start:none;marker-mid:none;marker-end:none;stroke-miterlimit:4;stroke-dasharray:none;stroke-dashoffset:0;stroke-opacity:1;visibility:visible;display:inline;overflow:visible;enable-background:accumulate"
       id="path10449" />
  </g>
</svg>
